<svg xmlns="http://www.w3.org/2000/svg" width="22" height="22" viewBox="0 0 22 22">
    <g fill="none" fill-rule="nonzero">
        <path fill="#000" d="M12.243 10.366V10c-.075.123-.178.245-.243.366h.243z"/>
        <path fill="#A1A1A1" d="M0 4v14a4 4 0 0 0 4 4h14a4 4 0 0 0 4-4V4a4 4 0 0 0-4-4H4a4 4 0 0 0-4 4zm6.843 14.277H3.579v-9.82h3.264v9.82zM5.21 7.117h-.022c-1.095 0-1.804-.755-1.804-1.698 0-.963.73-1.696 1.847-1.696 1.118 0 1.804.733 1.826 1.696 0 .943-.708 1.698-1.847 1.698zm13.404 11.16H15.35v-5.254c0-1.32-.471-2.22-1.653-2.22-.902 0-1.439.606-1.675 1.194-.086.21-.108.501-.108.796v5.484H8.648s.044-8.899 0-9.82h3.266v1.392c.434-.668 1.208-1.622 2.942-1.622 2.149 0 3.76 1.403 3.76 4.419v5.631z"/>
    </g>
</svg>
