<?xml version="1.0" encoding="UTF-8"?>
<svg width="32px" height="32px" viewBox="0 0 32 32" version="1.1" xmlns="http://www.w3.org/2000/svg" xmlns:xlink="http://www.w3.org/1999/xlink">
    <!-- Generator: Sketch 48.2 (47327) - http://www.bohemiancoding.com/sketch -->
    <title>Artboard</title>
    <desc>Created with Sketch.</desc>
    <defs></defs>
    <g id="Guideline-Details" stroke="none" stroke-width="1" fill="none" fill-rule="evenodd">
        <g id="Artboard" fill="#CCCCCC">
            <g id="Back-to-Top---Default-(Rounded-Rectangle)">
                <path d="M4,0 L28,0 C30.209139,-4.05812251e-16 32,1.790861 32,4 L32,28 C32,30.209139 30.209139,32 28,32 L4,32 C1.790861,32 2.705415e-16,30.209139 0,28 L0,4 C-2.705415e-16,1.790861 1.790861,4.05812251e-16 4,0 Z M15.6230312,12.1552974 L15.62305,12.1552791 L10.5417437,17.1045915 C10.1403062,17.4955689 10.2753062,17.8125603 10.843375,17.8125603 L13.9291562,17.8125603 L13.9291562,23.0001767 C13.9291562,23.5523923 14.3896187,24.0000437 14.9574062,24.0000437 L17.0152,24.0000437 C17.5830625,24.0000437 18.0434125,23.5524652 18.0434125,23.0001402 L18.0434125,17.8125603 L21.1292687,17.8125603 C21.6972625,17.8125603 21.83245,17.4957511 21.4308812,17.1045915 L16.3495937,12.1552974 C16.14895,11.9598542 15.8236375,11.9598907 15.6230312,12.1552974 Z M22.1716188,10.0001201 C22.7395938,10.0001201 23.2,9.55252341 23.2,9.00012551 C23.2,8.44785518 22.7392,8.00013097 22.1716188,8.00013097 L9.82838125,8.00013097 C9.26040625,8.00013097 8.8,8.44772762 8.8,9.00012551 C8.8,9.55239585 9.2607625,10.0001201 9.82838125,10.0001201 L22.1716188,10.0001201 Z" id="Combined-Shape"></path>
            </g>
        </g>
    </g>
</svg>