<svg xmlns="http://www.w3.org/2000/svg" width="96" height="29" viewBox="0 0 96 29">
    <g fill="#0081CC" fill-rule="nonzero">
        <path d="M10.952 7.105L9 7v5l1.357-.55L11 8.299z"/>
        <path d="M10 7L7 8.21V14l3-1.492zM6 9l-3 1.222V16l3-1.507z"/>
        <path d="M7 9.205L5 9v5l2-.834zM20 3l-6 .167V6s4.006-2.324 6-3zM14 4l-3 1.091V8l3-1.342zM32.66 4c.393-1.233.985-4.036-1.776-4A24.293 24.293 0 0 0 30 2.197c.744-.159 2.069-.127 2.66 1.803z"/>
        <path d="M25.546 22.673c.58-3.367 2.314-9.321 7.383-17.812 0 0 .029-.055.071-.146-.273-.682-1.146-2.123-3.46-1.605a51.57 51.57 0 0 0-2.745 8.705A92.92 92.92 0 0 0 25 23c.181-.1.362-.2.546-.327zM8.371 15.021a.78.78 0 0 0-.25.151.302.302 0 0 0-.055.132 6.198 6.198 0 0 0-.063.512s-.031.218.104.18l.174-.085c.088-.04.144-.112.15-.193l.069-.59c-.004-.034.027-.182-.129-.107zM5.39 16l-.365.138L5 16.5l.36-.135c.104-.032.24-.31.03-.365zM4 18l.345-.188L4.22 17z"/>
        <path d="M6.475 22.571c3.371 0 6.555 1.136 6.555 1.136s2.623-.568 4.496-.188c1.434.29 5.173.92 7.858 0a98.022 98.022 0 0 1 1.818-12.244A54.379 54.379 0 0 1 29.591 3.1c-3.355 1.15-8.83 3.088-16.94 8.509 0 0-.352-.117.393-.626.746-.508 8.864-6.039 16.82-8.568C30.189 1.585 30.569.779 31 0c-4.319.053-17.029 6.982-19.32 8.782l-.516 3.356L2 17.657l1.18 5.641a9.83 9.83 0 0 1 3.295-.727zM20.772 11.09a1.471 1.471 0 0 1 1.475.57c.655 1.104-.616 1.684-.616 1.684l.125-.136c.286-.352 0-1.122-.573-1.212-1.207-.136-1.161.842-1.161.842-.523-1.14.398-1.693.748-1.748h.002zm-2.478-1.446c-.023.589.165 1.167.528 1.628h-.625s.268 1.446 1.136 1.826c.455.216.91.165 1.046-.23a.497.497 0 0 1 .382-.327.55.55 0 0 1 .561.23.4.4 0 0 1 0 .46c-.227.28-.17.352-.17.38 0 .027.045.542.875.758.595.109 1.21.02 1.752-.253l.027-.055-.338-.478s.947 0 1.404-.497l.18-.172s.188 1.628-.634 2.097l-.348-.593s-.734.65-2.182.878c-.744.132-1.498.193-2.253.182 0 0-1.136-1.52-1.545-2.615a5.285 5.285 0 0 1-.314-1.53h-.707a2.394 2.394 0 0 1 1.225-1.69zm-6.993 3.054l.588-.355-.011.27-.368.23v.2l.34-.205-.013.257-.34.207-.014.249.38-.23-.015.287-.62.35.073-1.26zm-.825.496l.204-.124.228.538.034-.69.206-.124-.06 1.265-.208.124-.227-.533-.034.69-.207.124.064-1.27zm-.38.23l.227-.133-.061 1.265-.227.133.061-1.265zm-.682.405l.228-.133-.048.954.343-.207-.016.31-.564.34.057-1.264zm-.825.497l.205-.122.227.538.034-.69.207-.124-.061 1.265-.207.124-.228-.534-.034.69-.206.124.063-1.271zM7.68 15.63s.02-.389.03-.446a.673.673 0 0 1 .272-.495l.241-.144s.266-.138.228.269a5.713 5.713 0 0 1-.064.722.432.432 0 0 1-.187.248l-.309.186s-.245.15-.213-.345l.002.005zm-.636-.375l.588-.354-.013.269-.369.23v.202l.341-.207-.011.258-.343.207-.012.248.38-.23-.016.288-.6.36.055-1.27zm-.825.497l.204-.124.227.538.034-.69.207-.124-.061 1.265-.207.124-.227-.534-.034.69-.207.124.064-1.27zm-.378.23l.228-.134-.062 1.265-.227.131.061-1.262zm-.786.487l.47-.283c.116-.064.18 0 .2.102v.103a.886.886 0 0 1-.163.527c.118-.05.12.135.12.135v.251l-.207.124c.014-.218 0-.276-.066-.273a.657.657 0 0 0-.18.099l-.02.333-.209.126.055-1.244zm-.57.33l.24-.146.205 1.104-.228.138-.025-.186-.247.156-.046.23-.227.136.327-1.433zm-.849.51l.075.701.148-.835.289-.174-.061 1.264-.18.108.048-.963-.187 1.049-.163.098-.091-.88-.048.963-.18.108.062-1.265.288-.174z"/>
        <path d="M0 27.386s2.305-4.605 8.689-2.26c6.383 2.344 10.942 4.44 15.18 3.735 4.237-.705 7.138-3.25 7.722-4.859.585-1.609 1.31-4.48-3.84-6.002 0 0 4.431 2.53 2.034 5.873-2.398 3.343-7.271 3.681-9.934 2.976-2.662-.705-8.405-2.644-10.73-3.02-2.326-.375-7.802-.877-9.121 3.557z"/>
        <path d="M1 29s1.621-3.121 4.47-2.996c2.85.124 6.53 2.553 6.53 2.553s-5.405-1.592-7.207-1.168A16.403 16.403 0 0 0 1 29zM16 24.404s5.642 1.185 9.082.027c3.439-1.157 3.376-2.984 3.13-4.431 0 0 2.514 2.865-1.44 5.148C22.818 27.43 16 24.404 16 24.404zM42.148 5h3.56l.068 5.476L48.44 5H52l-2.143 9h-2.21l1.635-6.866L45.944 14h-2.029l-.07-6.866L42.21 14H40zM57.245 12.515h-2.9L53.608 14H51l5.13-9h2.787L60 14h-2.684l-.071-1.485zm-.094-1.948l-.186-3.233-1.63 3.233h1.816zM73.204 5H76l-2.206 9H71zM78.237 5h2.647l2.21 4.98L84.333 5H87l-2.24 9h-2.67l-2.2-4.938L78.665 14H76zM89.053 5H96l-.434 1.918h-4.354l-.326 1.434h4.04l-.422 1.831h-4.035l-.396 1.775h4.48L94.083 14H87zM69.784 5h-5.806L62 14h2.582l.603-2.4c.9 0 1.683-.088 2.206.073.637.23.863.779.444 2.327h2.553l.377-1.826a1.396 1.396 0 0 0-.302-1.07 1.298 1.298 0 0 0-.971-.478c1.31-.382 2.322-1.861 2.508-3.184v-.813c-.11-.89-.79-1.585-2.216-1.629zm-1.76 4.454h-2.44l.523-2.318h2.471c1.366.89.162 2.318-.554 2.318zM52.243 15h2.64l2.21 4.98L58.335 15H61l-2.236 9h-2.673l-2.196-4.938L52.665 24H50zM62.294 15H65.2l-1.731 6.782H68L67.436 24H60zM71.207 15H74l-2.204 9H69zM76.242 15h2.641l2.207 4.98L82.333 15H85l-2.24 9h-2.666l-2.2-4.938L76.664 24H74zM86.052 15H93l-.442 1.92H88.21l-.326 1.434h4.037l-.423 1.831h-4.023l-.423 1.773h4.488L91.073 24H84zM49.87 17.997c.8-2.834-2.35-2.997-2.35-2.997h-2.88c-3.01 0-3.632 2.415-3.632 2.415-.192.385-.836 3.142-.836 3.142-.911 3.484 2.1 3.443 2.1 3.443h3.68c1.816 0 2.397-.992 2.397-.992.616-.732 1.521-5.011 1.521-5.011zm-3.718 3.357c-.251.8-1.268.727-1.268.727h-1.368c-1.053-.147-.62-1.377-.62-1.377.247-.982.55-1.948.91-2.89a1.3 1.3 0 0 1 .54-.626c.324-.226 1.45-.188 1.998-.188 1.231 0 .88.813.836.997-.063.233-1.026 3.36-1.026 3.36l-.002-.003z"/>
    </g>
</svg>
